HIERARCHY
ROOT Hips
{
 OFFSET 0.000000 0.000000 0.000000
 CHANNELS 6 Xposition Yposition Zposition Yrotation Xrotation Zrotation
 JOINT Chest
 {
  OFFSET 0.000000 16.280000 -0.014500
  CHANNELS 3 Yrotation Xrotation Zrotation
  JOINT Chest2
  {
   OFFSET 0.000000 10.601900 0.029500
   CHANNELS 3 Yrotation Xrotation Zrotation
   JOINT Chest3
   {
    OFFSET 0.000000 10.554800 0.000000
    CHANNELS 3 Yrotation Xrotation Zrotation
    JOINT Chest4
    {
     OFFSET 0.000000 10.544000 0.000000
     CHANNELS 3 Yrotation Xrotation Zrotation
     JOINT Neck
     {
      OFFSET 0.000000 16.186500 0.000000
      CHANNELS 3 Yrotation Xrotation Zrotation
      JOINT Head
      {
       OFFSET 0.000000 9.876700 0.062400
       CHANNELS 3 Yrotation Xrotation Zrotation
       End Site
       {
        OFFSET 0.000000 18.635100 0.032900
       }
      }
     }
     JOINT RightCollar
     {
      OFFSET -3.550000 10.761000 0.000000
      CHANNELS 3 Yrotation Xrotation Zrotation
      JOINT RightShoulder
      {
       OFFSET -16.915100 0.000000 0.000000
       CHANNELS 3 Yrotation Xrotation Zrotation
       JOINT RightElbow
       {
        OFFSET 0.000000 -31.241900 0.000000
        CHANNELS 3 Yrotation Xrotation Zrotation
        JOINT RightWrist
        {
         OFFSET 0.000000 -25.690800 0.013700
         CHANNELS 3 Yrotation Xrotation Zrotation
         End Site
         {
          OFFSET 0.000000 -19.336200 0.000000
         }
        }
       }
      }
     }
     JOINT LeftCollar
     {
      OFFSET 3.550000 10.761000 0.000000
      CHANNELS 3 Yrotation Xrotation Zrotation
      JOINT LeftShoulder
      {
       OFFSET 16.915100 0.000000 0.000000
       CHANNELS 3 Yrotation Xrotation Zrotation
       JOINT LeftElbow
       {
        OFFSET 0.000000 -31.241900 0.000000
        CHANNELS 3 Yrotation Xrotation Zrotation
        JOINT LeftWrist
        {
         OFFSET 0.000000 -25.690800 0.013700
         CHANNELS 3 Yrotation Xrotation Zrotation
         End Site
         {
          OFFSET 0.000000 -19.336200 0.000000
         }
        }
       }
      }
     }
    }
   }
  }
 }
 JOINT RightHip
 {
  OFFSET -13.350800 0.071600 0.007200
  CHANNELS 3 Yrotation Xrotation Zrotation
  JOINT RightKnee
  {
   OFFSET 0.000000 -49.946400 0.002700
   CHANNELS 3 Yrotation Xrotation Zrotation
   JOINT RightAnkle
   {
    OFFSET 0.000000 -42.233900 0.021900
    CHANNELS 3 Yrotation Xrotation Zrotation
    JOINT RightToe
    {
     OFFSET 0.000000 -11.862800 19.724700
     CHANNELS 3 Yrotation Xrotation Zrotation
     End Site
     {
      OFFSET 0.000000 -1.715400 7.529500
     }
    }
   }
  }
 }
 JOINT LeftHip
 {
  OFFSET 13.350800 0.071600 0.007200
  CHANNELS 3 Yrotation Xrotation Zrotation
  JOINT LeftKnee
  {
   OFFSET 0.000000 -49.946400 0.002700
   CHANNELS 3 Yrotation Xrotation Zrotation
   JOINT LeftAnkle
   {
    OFFSET 0.000000 -42.233900 0.021900
    CHANNELS 3 Yrotation Xrotation Zrotation
    JOINT LeftToe
    {
     OFFSET 0.000000 -11.862800 19.724700
     CHANNELS 3 Yrotation Xrotation Zrotation
     End Site
     {
      OFFSET 0.000000 -1.715400 7.529500
     }
    }
   }
  }
 }
}
MOTION
Frames: 12
Frame Time: 0.008333
58.383136 131.452794 42.568047 -172.079621 -33.263741 -5.336112 4.609100 6.359348 -3.024051 0.239612 0.313484 -0.157028 0.416979 0.546764 -0.272916 4.338146 5.942285 -2.717148 -1.759049 24.039839 0.407568 -1.996090 0.222332 0.842598 4.721439 5.110950 -5.932622 19.361069 -34.319244 -16.531059 172.477856 -46.230770 -159.374555 -9.358347 -23.208592 -42.903433 0.380101 17.764861 12.599704 -16.250816 -51.683711 -0.185049 -169.482589 -43.395809 164.779193 -2.043193 -8.066275 41.191347 0.037426 -40.690066 -2.294767 -169.467532 60.984758 -158.098014 -0.007035 -16.402844 2.454362 0.099067 0.057445 0.059608 -13.921029 -39.373214 2.675730 160.751065 66.503908 154.896135 0.336759 -25.092675 -2.850407 0.069797 -0.021608 0.041968
58.390550 131.468654 42.611248 -171.972357 -33.469881 -5.298866 4.700174 6.590989 -3.170861 0.253077 0.337168 -0.171627 0.439674 0.587219 -0.297768 4.404868 6.160425 -2.860920 -1.716017 23.949384 0.435253 -1.955054 0.111870 0.862565 5.346397 5.031035 -5.694438 20.470839 -34.919139 -16.510622 172.827835 -46.727493 -159.069123 -9.670914 -22.743771 -41.679745 -0.966668 18.426471 12.341987 -16.826457 -52.740740 -0.676693 -170.341300 -43.839216 164.485481 -2.196309 -8.752426 39.805745 -0.014414 -40.298637 -2.352477 -169.330900 60.993123 -157.995583 0.020554 -16.549449 2.392631 0.050862 0.015756 0.030596 -13.907472 -39.145016 2.447851 160.677361 66.567393 154.814860 0.415881 -25.175781 -2.817042 0.046580 -0.015660 0.028010
58.401180 131.482411 42.661088 -171.875293 -33.663867 -5.248363 4.811177 6.814162 -3.332234 0.267332 0.362278 -0.188243 0.463707 0.629975 -0.326014 4.471674 6.378918 -3.023648 -1.662992 23.867180 0.466779 -1.904173 0.011304 0.884333 5.928288 4.940457 -5.442940 21.374939 -35.595267 -16.401200 173.345086 -47.278787 -158.796350 -10.012353 -22.284123 -40.246268 -2.273160 19.060171 12.159476 -17.489371 -53.741181 -0.987437 -171.081749 -44.177408 164.232993 -2.418135 -9.599100 38.805407 -0.038684 -39.937959 -2.438882 -169.230455 61.007111 -157.933892 0.033017 -16.724012 2.381033 0.036517 -0.033831 0.021964 -13.878704 -38.937145 2.233529 160.607774 66.614891 154.729837 0.463006 -25.259771 -2.761249 0.027007 -0.024283 0.016241
58.420229 131.494527 42.717272 -171.736719 -33.844086 -5.233698 4.880467 6.989306 -3.539797 0.281351 0.385824 -0.208933 0.487159 0.669859 -0.361276 4.528309 6.562677 -3.245023 -1.552447 23.828769 0.558907 -1.805369 -0.036615 0.958560 6.518867 4.913410 -5.090886 22.034888 -36.328515 -16.167104 174.065729 -47.868425 -158.560905 -10.386895 -21.893681 -38.651086 -3.408746 19.702571 12.160208 -18.267100 -54.648528 -1.038085 -171.983455 -44.470966 164.182817 -2.762568 -10.487242 38.179665 -0.083724 -39.609311 -2.534899 -169.143084 61.012232 -157.884794 0.069845 -16.880422 2.410838 0.023809 -0.060540 0.014319 -13.879595 -38.757746 2.049698 160.561867 66.666613 154.712847 0.482591 -25.307963 -2.738983 0.047264 -0.058710 0.028415
58.428307 131.515371 42.764701 -171.620803 -34.092750 -5.163249 4.770386 7.047089 -4.042082 0.281392 0.394547 -0.240967 0.486582 0.684463 -0.416456 4.404537 6.584272 -3.704726 -1.095840 23.955867 0.865418 -1.381433 0.113442 1.186477 7.591049 5.189547 -4.279514 22.591450 -37.078780 -15.876389 174.902150 -48.467381 -158.398069 -10.913175 -21.632101 -36.870902 -3.734631 20.631950 12.710743 -19.518048 -55.521946 -0.535213 -173.075736 -44.828275 164.422751 -3.262385 -11.291287 37.759273 -0.037018 -39.234568 -2.716351 -169.059470 60.992580 -157.836217 0.119518 -17.022261 2.456953 0.026881 -0.059965 0.016166 -13.925869 -38.447659 1.833031 160.455194 66.755831 154.528797 0.530411 -25.458590 -2.719034 0.039172 -0.012667 0.023555
58.442370 131.537646 42.815030 -171.485966 -34.358173 -5.119362 4.277526 6.826297 -4.779759 0.254153 0.378327 -0.279098 0.439353 0.656558 -0.482873 3.948328 6.363883 -4.396788 -0.144114 24.312788 1.329760 -0.457051 0.544174 1.473506 9.520592 5.945493 -3.041828 23.218678 -37.810311 -15.646734 175.854376 -49.083959 -158.428226 -11.671291 -21.481171 -34.885213 -2.809760 22.018772 13.753768 -21.648077 -56.434923 0.810107 -174.340469 -45.372292 164.994565 -3.947726 -11.950854 37.264232 0.009835 -38.853952 -2.899003 -168.981743 60.950064 -157.783735 0.197344 -17.172295 2.517160 0.017117 -0.047557 0.010296 -13.976810 -38.132563 1.646724 160.357643 66.821842 154.376324 0.539989 -25.595576 -2.705219 0.052116 0.003099 0.031340
58.461927 131.559135 42.871893 -171.337211 -34.633565 -5.101817 3.788228 6.427289 -5.402397 0.224450 0.350069 -0.307849 0.388217 0.608047 -0.533284 3.514303 6.007923 -4.992201 0.768609 24.817971 1.712065 0.445012 1.167160 1.683325 11.418938 7.121012 -1.937241 23.972769 -38.503616 -15.524681 177.112125 -49.793214 -158.837148 -12.718804 -21.409927 -32.552532 -1.668844 23.705257 14.709858 -24.291633 -57.419749 2.673888 -176.232043 -46.211763 166.170085 -4.663458 -12.601357 35.924498 0.049134 -38.472806 -3.068790 -168.933009 60.893595 -157.748419 0.264984 -17.340260 2.600859 -0.006392 -0.040297 -0.003841 -13.987147 -37.840158 1.451549 160.228677 66.851556 154.255740 0.540449 -25.685986 -2.702294 0.069861 -0.032536 0.042002
58.478508 131.582856 42.931372 -171.207363 -34.948798 -5.069904 3.661942 6.126128 -5.821560 0.217938 0.332799 -0.330503 0.376991 0.578155 -0.572639 3.405043 5.732194 -5.382765 1.268644 25.286112 2.001394 0.923655 1.752182 1.888204 12.508672 8.323709 -1.148440 24.784525 -39.133563 -15.450552 179.257361 -50.704535 -160.037543 -14.320469 -21.495800 -29.585189 -1.160153 25.295832 15.467638 -26.599481 -58.456825 4.329625 -178.972721 -47.321406 167.984043 -4.994612 -13.302480 33.289110 0.111159 -38.064355 -3.244965 -168.945090 60.837359 -157.767420 0.306135 -17.512868 2.677463 -0.011322 -0.023824 -0.006807 -13.968464 -37.509897 1.243131 160.167971 66.887155 154.177071 0.578511 -25.772702 -2.675242 0.070873 -0.083750 0.042595
58.492530 131.607202 42.996146 -171.093599 -35.296197 -5.029104 3.637367 6.066443 -6.140673 0.220657 0.334779 -0.353602 0.381340 0.581153 -0.612256 3.376708 5.672268 -5.668838 1.605475 25.557264 2.216986 1.243499 2.095867 2.049053 13.279154 9.129785 -0.663215 25.442861 -39.666875 -15.275190 -177.424637 -51.704163 -162.204285 -15.823490 -21.350215 -26.497810 -0.776548 26.395248 16.151666 -28.012874 -59.460614 5.264677 178.445340 -48.470205 169.537915 -4.700030 -13.805602 30.421434 0.168325 -37.647694 -3.410011 -169.027761 60.782031 -157.862244 0.300434 -17.668730 2.741219 0.008234 -0.013719 0.004954 -13.963869 -37.120282 1.041130 160.104821 66.942856 154.063988 0.630537 -25.914087 -2.645823 0.062698 -0.090047 0.037683
58.504151 131.637827 43.058457 -170.976908 -35.707786 -4.997554 3.579848 6.180434 -6.355237 0.221757 0.345962 -0.372600 0.382756 0.600062 -0.644559 3.309766 5.745896 -5.863039 1.893324 25.712141 2.314960 1.536584 2.294601 2.092391 14.011788 9.692804 -0.479009 25.725109 -40.093673 -14.877234 -173.875078 -52.440470 -164.584215 -16.022989 -20.431520 -24.291285 -0.264644 27.130298 16.705921 -28.484534 -60.299513 5.421306 177.169612 -49.352313 170.016075 -3.820181 -13.741832 28.779543 0.215848 -37.152158 -3.570256 -169.176253 60.758737 -158.014811 0.271887 -17.827333 2.797545 0.035606 0.007774 0.021420 -14.016412 -36.626836 0.851115 160.010356 67.019853 153.873922 0.683028 -26.114942 -2.624546 0.051054 -0.045127 0.030692
58.523674 131.669284 43.125281 -170.798145 -36.139413 -5.043442 3.550273 6.321447 -6.447065 0.225951 0.359325 -0.387136 0.389530 0.622773 -0.669150 3.297503 5.854891 -5.978724 2.057223 25.865282 2.328122 1.713942 2.488656 2.071381 14.539478 10.257006 -0.439351 25.648328 -40.411755 -14.316473 -171.213008 -52.801875 -166.269692 -15.426499 -18.962046 -23.143734 0.189230 27.726722 17.145677 -28.448262 -60.861193 5.221873 176.999932 -49.761891 169.736538 -2.630543 -13.131608 28.784875 0.185121 -36.616039 -3.691796 -169.321242 60.751252 -158.159512 0.279856 -17.977907 2.860408 0.045188 0.031568 0.027186 -14.106595 -36.126089 0.689664 159.949004 67.084800 153.746628 0.755436 -26.290837 -2.593992 0.027179 -0.023097 0.016342
58.535354 131.697077 43.201277 -170.612271 -36.571319 -5.077604 3.567126 6.504954 -6.515553 0.232721 0.377407 -0.400822 0.400695 0.653541 -0.692123 3.315060 6.016148 -6.056016 2.114353 26.003468 2.270943 1.790729 2.661340 1.997455 14.899540 10.751211 -0.458514 25.478982 -40.598501 -13.810219 -169.667536 -52.961958 -167.148792 -15.113464 -17.712075 -22.704199 0.591742 28.113336 17.481767 -28.395254 -61.134798 5.172613 176.878141 -49.774169 169.530955 -1.839180 -12.578932 29.762347 0.157290 -36.100160 -3.840166 -169.375665 60.708729 -158.239138 0.324723 -18.102054 2.946820 0.060948 0.046518 0.036673 -14.177253 -35.639897 0.504279 159.899730 67.151307 153.655477 0.794885 -26.446252 -2.576128 0.041116 -0.018769 0.024722
